<svg width="36" height="35" viewBox="0 0 36 35" fill="none" xmlns="http://www.w3.org/2000/svg">
<path d="M1.86001 12.4108C1.98001 13.8508 1.38001 15.4708 1.20001 16.9708C0.78001 21.3508 9.77516e-06 25.6108 9.77516e-06 30.1108C9.77516e-06 31.6108 2.63989 34.1308 4.25989 34.1308C5.69989 34.1308 6.53989 32.7508 6.53989 31.3708C6.53989 31.0108 6.47989 30.8308 6.41989 30.5308C6.47989 27.7708 6.95989 24.7708 7.49989 22.0708V21.6508L8.63989 12.7108H8.75989C8.93989 12.7108 9.05989 12.7108 9.11989 12.9508C9.29989 13.6108 10.0799 17.2708 10.2599 18.0508C10.3199 18.1108 10.3799 18.4708 10.4399 18.5308C10.6199 18.8908 10.9199 19.1308 11.0399 19.6108C11.3399 20.3908 11.2799 21.5308 11.8199 22.1908L12.4799 24.9508C12.8399 25.4308 12.7199 26.1508 12.8999 26.7508C13.5599 28.9708 14.8799 31.8508 17.5199 31.8508C18.1199 31.8508 17.9399 31.4308 18.2399 31.0708C18.6599 30.7108 19.3199 30.7108 19.4999 30.1108C20.7599 25.7308 22.2799 22.3907 24.2599 18.2507C25.5199 15.6107 26.9988 10.9707 27.0799 10.9707L27.5464 10.597C27.7085 11.2674 28.195 14.3959 28.3572 15.0105C29.0058 15.5691 29.0869 19.0328 29.3302 19.8149C29.4112 19.8708 29.6545 20.1501 29.6545 20.1501C30.2221 22.8317 29.0058 27.9714 32.4923 29.8708H32.6545C32.7356 29.8149 33.0599 29.7591 33.0599 29.7032L34.7399 29.6908C35.0399 29.6908 35.8799 29.1508 35.8799 28.8508V28.7308C35.6399 28.6108 35.0999 28.6108 35.0999 28.2508C35.0999 27.7708 35.5199 27.3508 35.5199 26.8708V26.7508C35.5199 26.6908 35.2199 26.2708 35.0999 26.1508C34.9199 23.8108 34.4999 22.3708 34.6199 20.0308L34.4999 19.7308C34.0199 13.6108 33.2999 7.73079 32.5199 1.67079C32.5199 1.61079 32.3999 1.55079 32.3399 1.49079C32.2799 1.49079 31.5599 1.37079 31.4399 1.37079C31.1999 1.55079 29.8799 -1.02921 28.3799 0.470793C28.0799 0.710793 27.1199 1.67079 26.9399 1.79079C26.8199 2.03079 25.9799 3.41079 25.7399 3.83079C25.3799 4.61079 22.1999 10.7308 21.7199 11.5108C21.7199 11.5708 21.3599 12.1108 21.2999 12.2308C21.2399 12.4108 20.8799 13.0108 20.8199 13.1908C20.4599 14.0908 18.2999 20.7508 17.8799 21.6508C17.8799 21.7708 17.6399 22.1908 17.6399 22.3108H17.5199C16.9199 22.3108 16.9799 21.1108 16.8599 20.6908C16.3199 17.9308 15.0599 15.0508 14.9399 12.2308C14.8199 10.4308 14.8199 9.17079 14.2799 7.37079C14.2199 7.13079 13.5599 5.27079 13.3199 4.79079C13.3199 4.61079 13.0799 4.19079 13.0799 4.13079C12.3599 3.23079 11.2199 1.97079 10.1999 1.55079C10.0799 1.55079 9.89989 1.49079 9.83989 1.49079C9.41989 1.49079 7.97989 0.890793 7.49989 0.890793C7.07989 0.890793 6.65989 0.710793 6.23989 0.710793C5.45989 0.710793 4.67989 1.19079 4.13989 1.79079C4.19989 2.15079 2.94001 2.87079 2.88001 3.17079C2.88001 3.29079 2.82001 3.71079 2.76001 3.83079L1.86001 12.4108Z" fill="white"/>
</svg>
