<svg width="105" height="36" viewBox="0 0 105 36" fill="none" xmlns="http://www.w3.org/2000/svg">
<path d="M0 18.5131C0 16.1756 0.405168 13.9627 0.623336 11.6875C0.716836 10.9084 1.0285 10.0669 0.96617 9.31887L1.43367 4.86202C1.46484 4.79968 1.49601 4.58152 1.49601 4.51918C1.52717 4.36335 1.52717 3.58418 1.49601 3.39718C1.77651 3.08551 2.18167 2.83618 2.58684 2.83618C2.80501 2.83618 3.02318 2.92968 3.24134 2.92968C3.49068 2.92968 3.52185 2.68034 3.74001 2.68034C3.77118 2.68034 3.86468 2.71151 3.92701 2.71151C4.45685 2.92968 5.04902 3.58418 5.42302 4.05168C5.42302 4.08285 5.54769 4.30102 5.54769 4.39452C5.67235 4.64385 6.01519 5.61002 6.04635 5.73469C6.32686 6.66969 6.32686 7.32419 6.38919 8.2592C6.45152 9.72404 7.10603 11.22 7.38653 12.6537C7.44886 12.8719 7.60469 14.3991 7.91636 14.3991C7.91636 14.3991 7.91636 14.3991 7.97869 14.3991C7.97869 14.3367 8.10336 14.1186 8.10336 14.0562C8.32153 13.5887 9.97337 9.78637 10.1604 9.31887C10.1915 9.22537 10.3785 8.9137 10.4097 8.8202C10.4409 8.75787 10.6279 8.47736 10.6279 8.4462C10.8772 8.04103 12.529 4.86202 12.716 4.45685C12.8407 4.23868 13.277 3.52185 13.3394 3.39718C13.4329 3.33485 13.9315 2.83618 14.0874 2.71151C14.8666 1.93234 15.5522 3.27251 15.6769 3.17901C15.7392 3.17901 16.1132 3.24135 16.1444 3.24135C16.1756 3.27251 16.2379 3.30368 16.2379 3.33485C16.6431 6.48269 17.0171 9.53704 17.2664 12.716L17.3287 12.8719C17.2664 14.0874 17.4846 14.8354 17.5781 16.0509C17.6404 16.1132 17.7962 16.3314 17.7962 16.3626V16.4249C17.7962 16.6742 17.5781 16.8924 17.5781 17.1417C17.5781 17.3287 17.8586 17.3287 17.9832 17.3911V17.4534C17.9832 17.6092 17.5469 17.8897 17.3911 17.8897H16.5184C16.5184 17.9209 16.3937 17.9521 16.3626 17.9832C16.3626 17.9832 16.3626 17.9832 16.3314 17.9832H16.3002C14.9601 16.9236 15.4276 14.0562 15.2094 12.5602C15.2094 12.5602 15.1159 12.4044 15.0847 12.3732C14.9912 11.9369 14.9601 10.0045 14.7107 9.69287C14.6484 9.35003 14.4614 7.6047 14.3991 7.23069C14.3991 7.10603 14.3367 6.82553 14.3367 6.82553H14.2121C14.1809 6.82553 12.5914 10.0045 11.9369 11.3759C10.9084 13.5264 10.1292 15.8327 9.4747 18.1079C9.3812 18.4196 9.03837 18.4196 8.8202 18.6066C8.66437 18.7936 8.75786 19.0117 8.4462 19.0117C7.07486 19.0117 6.38919 17.5157 6.04635 16.3626C5.95285 16.0509 6.01519 15.6769 5.82819 15.4276L5.48535 13.9939C5.20485 13.6511 5.23602 13.0589 5.08018 12.6537C5.01785 12.4044 4.86202 12.2797 4.76852 12.0927C4.73735 12.0615 4.70618 11.8745 4.67502 11.8434C4.58152 11.4382 4.14518 9.6617 4.05168 9.31887C4.02051 9.1942 3.95818 9.1942 3.86468 9.1942H3.80235L3.21018 13.8381V14.0562C2.92968 15.4587 2.68034 17.0171 2.64918 18.4507C2.68034 18.6066 2.71151 18.7001 2.71151 18.8871C2.71151 19.6039 2.30634 20.1961 1.55834 20.1961C0.716836 20.1961 0 19.2922 0 18.5131Z" fill="white"/>
<path d="M19.8756 20.5701C19.8756 20.5389 20.0315 20.2896 20.0315 20.2584C20.4366 19.3234 20.6548 18.2014 20.8106 17.2352C20.8418 17.1417 20.7171 16.9236 20.873 16.7989L22.0261 13.1524L25.2052 0.87267C25.5168 0.592169 25.5168 0 26.109 0C26.6388 0 26.8258 0.311669 27.1998 0.529836C27.4803 0.654503 27.7608 0.654503 28.0413 0.779171C28.6647 0.966171 28.8205 2.21284 29.101 2.64918C29.2257 3.05435 29.7555 5.04902 29.8802 5.48535C29.9425 5.85935 30.0672 6.17102 30.0672 6.51386C30.0672 6.82553 29.8802 7.13719 29.8802 7.51119C29.8802 8.32153 30.1295 9.44353 30.2542 10.3474C30.2853 10.7214 30.4723 11.1577 30.41 11.5005C30.4723 11.8745 30.8152 13.464 30.8152 13.7757C30.9398 14.3367 31.0645 15.0536 31.3762 15.6146L31.8748 17.7651C32.0618 18.0456 31.8748 17.8586 31.9372 18.1391C32.0618 18.5131 32.4982 19.0741 32.4982 19.5104C32.4982 19.6662 32.3735 19.6662 32.3735 19.8221C32.3735 19.9779 32.4982 20.1337 32.4982 20.2584C32.4982 20.4454 32.2177 20.5389 32.0307 20.5701C31.9372 20.5701 31.532 20.5701 31.4697 20.5701C31.158 20.5701 30.8152 20.6012 30.4723 20.5077C30.4723 20.1337 30.1607 19.9156 30.036 19.6039L29.1945 16.5807H29.101C28.7893 16.6431 27.9167 16.7366 27.8855 16.7366L23.9897 17.6716L23.7092 17.7962C23.7092 17.8274 23.5845 18.3884 23.5533 18.6377C23.5533 18.6377 23.5533 18.7936 23.5533 18.8559C23.5533 19.4481 23.9897 19.9467 23.9897 20.5389C23.9897 21.4427 22.556 21.6609 21.5275 21.6609C20.8106 21.6609 19.751 21.1934 19.8756 20.5701ZM26.7635 4.70618C26.6388 5.01785 26.67 5.04902 26.6077 5.39185C26.5142 5.85935 25.5168 9.44353 25.4233 9.87987C25.3922 9.9422 25.3298 10.285 25.2987 10.3474C24.8 12.0615 24.239 13.7446 24.239 15.4899C25.174 15.4899 25.9843 15.2406 26.8258 15.0536C27.4492 14.9289 28.0102 14.9289 28.6335 14.8042C28.6958 14.7419 28.6958 14.7107 28.6958 14.6796C28.6958 13.3705 28.0102 11.8122 27.8855 10.472C27.8855 10.4409 27.8855 10.4097 27.8855 10.3162C27.8232 9.35003 27.2933 4.70618 26.7947 4.70618H26.7635Z" fill="white"/>
<path d="M33.3886 15.7081V13.6199C33.4198 13.5575 33.5133 13.277 33.5133 13.2147C33.5445 12.903 33.7626 10.3474 33.7938 10.0357C34.1055 7.60469 34.6976 5.29835 34.5418 2.80501C34.5418 2.77384 34.6041 2.68034 34.6041 2.64918C34.7288 2.52451 35.134 2.11934 35.1651 2.08818C35.1651 2.08818 35.4145 2.08818 35.508 2.08818C36.5988 2.08818 37.7208 2.61801 38.4065 3.45951C38.7493 3.83351 38.7181 4.61268 38.874 5.11135C39.4973 6.70086 40.2142 8.22803 41.0245 9.69287C41.0557 9.7552 41.305 10.0669 41.3673 10.2227C41.5543 10.5032 42.1777 11.4382 42.3958 11.6252C42.7387 10.846 42.7698 9.91104 42.9568 9.06953C43.2062 7.82286 43.6425 6.60736 43.923 5.36069C44.0477 5.17369 43.9542 5.14252 43.9853 4.95552C44.11 4.42568 44.297 3.89585 44.484 3.33485C44.671 2.58684 44.5775 2.30634 45.2632 1.77651C45.2943 1.77651 45.3255 1.77651 45.3567 1.77651C46.0112 1.77651 46.2605 2.33751 46.6968 2.71151C46.8215 2.83618 47.2578 2.99201 47.2578 3.21018C47.2578 3.33485 46.8527 4.14518 46.7592 4.48802C46.7592 4.51918 46.6968 4.67502 46.6968 4.70618C45.9488 6.51386 44.7957 10.0357 44.7957 12.0304C44.7957 12.6849 45.1073 13.277 45.1073 13.9316C45.1073 13.9939 45.1073 14.1497 45.1073 14.1497C45.0762 14.2744 44.7957 14.5237 44.7022 14.5549V15.3652C44.2347 15.3341 44.7957 16.5807 43.4555 16.5807C42.1777 16.5807 41.8972 16.1756 41.305 15.2094C41.118 14.9289 40.8375 14.8977 40.6505 14.5549C40.5258 14.3367 39.5908 12.4979 39.4661 12.2485C39.3415 12.0927 38.3753 10.5344 38.2506 10.3474L38.1883 10.2227C37.9078 9.69287 37.2533 8.5397 37.2221 8.5397L37.0663 8.38386C37.0351 8.41503 37.004 8.57086 36.9728 8.60203C36.6611 10.1915 36.4741 11.6252 36.3183 13.1524C36.3183 13.277 36.2871 13.4017 36.2871 13.5264C36.2871 13.5575 36.2248 13.7445 36.2248 13.8069C36.1625 14.0251 36.1001 14.8354 36.1001 14.8977C36.1313 15.3652 36.443 15.7392 36.443 16.2379C36.443 16.7677 35.6326 17.0482 35.1963 17.0482C33.7003 17.0482 34.0431 16.7677 33.3886 15.7081Z" fill="white"/>
<path d="M52.9499 20.7882C52.9499 19.8532 53.2304 19.6974 53.4798 18.9494C54.0096 17.2976 54.5394 15.6457 55.1628 14.0562C55.3186 13.6511 55.5991 13.3082 55.5991 12.8407C55.5991 12.6537 55.5679 12.529 55.3186 12.3732C53.0123 11.3759 51.5162 10.3474 49.5839 8.8202C48.7736 8.47736 48.1502 7.94753 48.1502 7.01253C48.1502 6.91903 48.1814 6.70086 48.1814 6.63852C48.4619 6.32686 48.8982 5.76585 49.3657 5.76585C49.3969 5.76585 49.5216 5.79702 49.5216 5.79702C50.1449 5.92169 51.0487 6.26452 51.6097 6.45152C51.9526 6.57619 52.2331 6.88786 52.4513 7.13719C53.8538 8.3527 54.8511 9.4747 56.6899 10.0045C56.6899 10.0045 56.7834 10.0045 56.8146 10.0045C56.9704 10.0045 57.0016 10.0045 57.0951 9.8487C57.3756 9.44353 57.4691 8.97603 57.5938 8.57086C57.6561 8.4462 57.9989 7.6982 58.1236 7.48003C58.6534 6.32686 59.1209 5.20485 59.5261 4.02051C59.6508 3.70885 60.1806 3.33485 60.3988 3.14784C60.3988 3.14784 60.4923 3.14784 60.5234 3.14784C61.3961 3.14784 62.861 4.51918 62.861 5.45419C62.861 5.92169 62.1753 6.32686 61.8948 6.70086C61.5831 7.23069 61.4273 7.9787 61.1468 8.47736C59.4326 11.6252 57.9678 14.8977 56.8769 18.2326C56.7523 18.5442 56.5029 19.0741 56.1601 19.1676V19.7909L56.0043 19.9467C56.0043 20.0402 55.9731 20.5701 55.9419 20.7259C55.7238 21.6297 55.5679 22.3154 54.4771 22.3154C54.4148 22.3154 54.2589 22.3154 54.2278 22.3154C54.1966 22.2842 54.0096 22.1596 53.9784 22.1596C53.9473 22.1284 53.8849 22.1284 53.8538 22.0972C53.1369 21.8167 52.9499 21.7232 52.9499 20.7882Z" fill="white"/>
<path d="M64.251 9.6617C64.251 8.78903 64.3445 7.94753 64.5315 7.10603C64.5627 7.07486 64.625 6.95019 64.625 6.91903C64.6562 6.79436 64.6874 6.70086 64.7497 6.57619C65.5289 4.58152 66.7755 1.43367 69.3312 1.43367C70.0792 1.43367 70.4532 1.93234 71.0766 2.11934C71.1701 2.11934 71.9492 2.24401 72.0427 2.27518C72.1051 2.27518 72.5726 2.55568 72.7284 2.64918C72.7907 2.64918 73.0401 2.86734 73.0401 2.86734C73.1336 2.92968 73.7569 3.17901 73.8504 3.24135C74.4114 3.55301 75.0971 5.04902 75.4087 5.54769C75.4711 5.70352 76.0632 6.73202 76.1567 6.82553C76.1879 6.88786 76.2191 6.98136 76.2814 7.04369C76.2814 7.16836 76.2814 7.7917 76.2814 7.94753C76.2814 9.16303 76.1256 11.6564 75.4711 12.8095C75.4087 12.8719 74.9412 13.5575 74.8477 13.6822C73.6011 15.5522 72.1362 16.9236 69.6429 16.9236C67.5236 16.9236 66.6509 16.4561 65.4665 14.7731C64.625 13.5264 64.251 11.1889 64.251 9.6617ZM67.2742 10.4097C67.2742 11.594 67.9911 14.3991 69.5182 14.3991C71.2947 14.3991 72.8219 11.7499 73.2582 10.3785C73.3206 10.098 73.6322 8.75787 73.6634 8.47736C73.6634 8.4462 73.6634 8.41503 73.6634 8.38386C73.6322 8.13453 73.6322 7.9787 73.4764 7.7917C73.4452 7.6982 72.9466 6.95019 72.8842 6.82553C72.5102 6.13986 72.1986 5.11135 71.4506 4.67502C71.2947 4.70618 70.4532 4.70618 70.2974 4.67502C70.2662 4.67502 69.9234 4.61268 69.8611 4.61268C68.9261 4.86202 67.5236 7.8852 67.3989 8.9137C67.3677 8.94487 67.3054 9.8487 67.2742 10.2227C67.2742 10.2227 67.2742 10.3785 67.2742 10.4097Z" fill="white"/>
<path d="M78.1604 15.7081V13.6199C78.1916 13.5575 78.2851 13.277 78.2851 13.2147C78.3163 12.903 78.5344 10.3474 78.5656 10.0357C78.8773 7.60469 79.4694 5.29835 79.3136 2.80501C79.3136 2.77384 79.3759 2.68034 79.3759 2.64918C79.5006 2.52451 79.9058 2.11934 79.9369 2.08818C79.9369 2.08818 80.1863 2.08818 80.2798 2.08818C81.3706 2.08818 82.4926 2.61801 83.1783 3.45951C83.5211 3.83351 83.4899 4.61268 83.6458 5.11135C84.2691 6.70086 84.986 8.22803 85.7963 9.69287C85.8275 9.7552 86.0768 10.0669 86.1391 10.2227C86.3261 10.5032 86.9495 11.4382 87.1676 11.6252C87.5105 10.846 87.5416 9.91104 87.7286 9.06953C87.978 7.82286 88.4143 6.60736 88.6948 5.36069C88.8195 5.17369 88.726 5.14252 88.7571 4.95552C88.8818 4.42568 89.0688 3.89585 89.2558 3.33485C89.4428 2.58684 89.3493 2.30634 90.035 1.77651C90.0661 1.77651 90.0973 1.77651 90.1285 1.77651C90.783 1.77651 91.0323 2.33751 91.4686 2.71151C91.5933 2.83618 92.0296 2.99201 92.0296 3.21018C92.0296 3.33485 91.6245 4.14518 91.531 4.48802C91.531 4.51918 91.4686 4.67502 91.4686 4.70618C90.7206 6.51386 89.5675 10.0357 89.5675 12.0304C89.5675 12.6849 89.8791 13.277 89.8791 13.9316C89.8791 13.9939 89.8791 14.1497 89.8791 14.1497C89.848 14.2744 89.5675 14.5237 89.474 14.5549V15.3652C89.0065 15.3341 89.5675 16.5807 88.2273 16.5807C86.9495 16.5807 86.669 16.1756 86.0768 15.2094C85.8898 14.9289 85.6093 14.8977 85.4223 14.5549C85.2976 14.3367 84.3626 12.4979 84.238 12.2485C84.1133 12.0927 83.1471 10.5344 83.0224 10.3474L82.9601 10.2227C82.6796 9.69287 82.0251 8.5397 81.9939 8.5397L81.8381 8.38386C81.8069 8.41503 81.7758 8.57086 81.7446 8.60203C81.4329 10.1915 81.2459 11.6252 81.0901 13.1524C81.0901 13.277 81.0589 13.4017 81.0589 13.5264C81.0589 13.5575 80.9966 13.7445 80.9966 13.8069C80.9343 14.0251 80.8719 14.8354 80.8719 14.8977C80.9031 15.3652 81.2148 15.7392 81.2148 16.2379C81.2148 16.7677 80.4044 17.0482 79.9681 17.0482C78.4721 17.0482 78.8149 16.7677 78.1604 15.7081Z" fill="white"/>
<path d="M94.5817 17.4534C94.6128 17.1729 94.6128 16.7054 94.4882 16.4561L94.0207 11.9057C94.083 10.7525 93.896 9.35003 93.896 8.2592C93.896 5.98402 94.2077 3.77118 94.1142 1.55834C94.2388 1.18434 94.644 0.966171 95.0492 0.748004C95.3608 0.748004 96.7945 0.68567 97.1685 0.68567C98.5087 0.561002 99.4125 0.0311682 100.971 0.0311682C101.189 0.0311682 102.373 0.0623346 102.405 0.342836C102.405 0.374002 102.405 0.561002 102.405 0.592169C102.498 0.841503 103.308 0.623337 103.308 1.309C103.308 1.55834 102.841 1.90117 102.623 2.02584H102.592C102.311 2.02584 100.846 2.21284 100.472 2.24401C98.5399 2.61801 98.1035 3.14784 97.7918 4.61268C97.7607 5.17369 97.5737 5.61002 97.5737 6.20219C98.5087 6.20219 99.2567 5.92169 100.161 5.92169C100.223 5.92169 100.535 5.92169 100.628 5.92169C100.69 6.29569 100.877 6.29569 101.345 6.23336C101.563 6.38919 101.563 6.91903 101.563 7.13719C101.563 8.57086 98.1035 8.1657 97.449 9.0072C97.449 9.25653 97.449 10.3785 97.449 10.6279C97.449 11.9992 97.5113 13.277 97.6672 14.6484C97.6672 14.7731 97.7607 15.9886 97.7607 16.1444C97.7607 16.1756 97.7918 16.4561 97.7918 16.5496C97.9789 16.9236 97.8854 17.3911 98.5087 17.3911C100.067 17.3911 101.968 15.8327 103.215 15.8327C103.433 15.8327 103.34 16.0821 103.651 16.0821C103.838 16.0821 103.932 15.9574 104.15 15.9574C104.368 15.9574 104.555 16.3002 104.555 16.4249C104.555 16.4872 104.275 16.6431 104.243 16.7366V16.8301L104.43 16.8924V16.9547C104.243 17.2352 104.275 17.6092 104.025 17.8274C104.025 17.8274 103.745 18.0144 103.651 18.0456C102.093 18.8247 100.254 19.5727 98.384 19.5727C97.5737 19.5727 95.9218 19.4169 95.4232 18.6377C95.4232 18.6066 95.3608 18.3884 95.3608 18.3572C95.2362 18.2014 94.7063 17.5781 94.5817 17.4534Z" fill="white"/>
<line x1="0.649308" y1="30.1427" x2="35.3792" y2="30.1427" stroke="white" stroke-width="1.29862" stroke-linecap="round"/>
<path d="M39.4052 34.3984C39.4052 34.3852 39.392 34.3852 39.392 34.372L39.4052 34.3589C39.537 34.227 39.6161 34.0556 39.7876 33.9369C40.17 33.6996 40.7765 33.6864 40.7765 33.1194C40.7765 32.4469 40.1831 31.7085 39.7084 31.3393C38.9832 30.7591 38.6272 30.7195 38.6272 29.691C38.6272 29.5196 38.614 29.3218 38.6668 29.1504C38.825 28.6098 39.1942 28.0296 39.4975 27.5681C39.748 27.1857 40.0513 26.9747 40.526 26.9747C41.0139 26.9747 41.8973 27.1989 41.8973 27.845C41.8973 28.3856 41.1325 28.0955 40.882 28.2406C40.4732 28.4779 39.959 29.5328 39.959 30.0207C39.959 30.3371 40.8424 30.8118 41.093 31.0096C41.6072 31.4711 41.7918 31.9722 42.0819 32.5656C42.0555 32.6842 42.1083 32.8425 42.1083 32.9611C42.1083 33.3699 41.9237 33.8578 41.7127 34.1874C41.4754 34.3061 41.4358 34.4116 41.2248 34.6094C41.1853 34.6358 41.1062 34.6885 41.0534 34.7017C40.6842 34.8599 40.4337 34.9522 40.104 35.0709H40.0908C40.0117 35.0709 39.959 34.8731 39.893 34.8204C39.8667 34.8072 39.6953 34.6885 39.6821 34.6753C39.6425 34.6358 39.4315 34.438 39.4052 34.3984ZM39.4315 34.1874C39.4711 34.1874 39.4711 34.2534 39.4315 34.2534C39.4052 34.2534 39.4052 34.1874 39.4315 34.1874Z" fill="white"/>
<path d="M43.6314 34.4116C43.6314 34.3852 43.6314 34.3457 43.6314 34.3325C43.6314 34.1611 43.7237 32.6315 43.7237 32.4469C43.7369 31.9986 43.7369 29.902 43.7237 29.4537C43.7237 29.4405 43.7237 29.4405 43.7237 29.4273C43.7369 29.2955 43.8028 28.8999 43.8028 28.8208C43.8028 28.7812 43.8028 28.5043 43.8028 28.4779C43.8028 28.412 43.8555 28.0164 43.8687 27.8977C43.8687 27.8846 43.9083 27.7791 43.9083 27.7659C43.9083 27.7 43.8423 27.6604 43.8028 27.6604C43.6446 27.634 42.9325 27.489 42.7875 27.4494C42.7215 27.4362 42.471 27.3307 42.4314 27.3044C42.2468 27.1593 42.326 26.9484 42.2468 26.7901C42.2468 26.7769 42.1809 26.711 42.1809 26.6978C42.1809 26.6978 42.1809 26.6846 42.1809 26.6715C42.1809 26.4473 42.3787 26.3154 42.5633 26.3154C42.5897 26.3154 42.6688 26.3286 42.6688 26.3286C42.7084 26.3286 43.0644 26.4473 43.1039 26.4605C43.2094 26.5 43.7896 26.6187 43.9083 26.6319C43.9215 26.6319 43.9874 26.6451 44.0006 26.6451C44.1192 26.6451 44.2115 26.6055 44.3302 26.6055C44.528 26.6055 44.6994 26.6451 44.884 26.6715C44.8972 26.6715 45.0291 26.6715 45.0423 26.6715C45.1873 26.6715 45.6356 26.6978 45.662 26.6978C45.8862 26.7506 47.0597 27.0407 47.2048 27.278C47.2575 27.3439 47.2575 27.4362 47.2575 27.5285C47.2575 27.5417 47.2575 27.634 47.2575 27.6604C47.1652 27.7659 47.0465 27.8318 46.9279 27.8977C46.8751 27.9109 46.5982 27.9109 46.5455 27.9109C46.1894 27.9109 45.9389 27.8054 45.6488 27.8054C45.3324 27.8054 45.1741 28.5043 45.1346 28.7153C45.0423 29.2295 44.9236 29.7965 44.9236 30.3108C44.9236 30.6009 44.9631 30.8778 44.9631 31.1679C44.9631 32.1304 44.95 33.1062 44.8577 34.0556C44.6862 34.4248 44.9236 34.6885 44.5808 34.9786C44.5016 34.9786 44.2115 34.9786 44.1456 34.9786C44.1324 34.9786 44.0269 35.005 44.0006 35.005H43.9874C43.8687 35.005 43.6314 34.5171 43.6314 34.4116Z" fill="white"/>
<path d="M47.3317 31.1942C47.3317 30.5613 47.4372 29.9152 47.3976 29.2691C47.424 29.0977 47.5558 28.2274 47.5822 28.0428C47.5954 27.99 47.6877 27.5154 47.7141 27.3835C47.8064 27.0011 48.1228 26.9615 48.4788 26.9615C48.7689 26.9615 49.2436 27.133 49.2436 27.4758C49.2436 27.8186 48.9931 28.0823 48.9272 28.3988C48.7294 29.3086 48.5975 30.2712 48.5975 31.1942C48.5975 31.4184 48.6898 32.7502 48.9931 32.8029C49.2041 32.8029 49.3359 32.5392 49.4414 32.3678C50.0875 31.4184 50.0084 30.825 50.0743 29.7042C50.0875 29.4801 50.193 27.7263 50.2194 27.5154C50.2194 27.5022 50.2194 27.423 50.2194 27.4099C50.2194 27.4099 50.259 27.3571 50.259 27.3439C50.259 27.3439 50.2194 27.278 50.2194 27.2648C50.259 27.0538 50.4963 26.9879 50.6677 26.9879C50.7073 26.9879 50.7468 26.9879 50.7468 26.9879C51.1292 27.0802 51.182 27.0407 51.3798 27.3835C51.3798 27.3967 51.4852 27.5022 51.4852 27.5154V27.5417C51.4852 27.5549 51.4589 27.6208 51.4589 27.634C51.3798 28.412 51.3402 29.0713 51.3006 29.8493C51.2875 30.2976 51.3138 30.7591 51.2743 31.2074C51.2743 31.2338 51.2479 31.3656 51.2479 31.392C51.0897 31.8931 51.0237 32.1041 50.8128 32.5524C50.3644 33.4886 48.7689 34.5698 47.925 33.4886C47.8591 33.4095 47.8064 33.1985 47.7668 33.1062C47.4108 32.526 47.3317 31.8931 47.3317 31.1942Z" fill="white"/>
<path d="M52.2764 34.7149C52.2764 34.6753 52.2764 34.6621 52.316 34.6094L52.5797 32.4469C52.5401 31.6689 52.5533 30.8514 52.6456 30.0734C52.6852 29.9811 52.6984 29.9152 52.6984 29.8229L52.9093 27.423C52.9093 27.4099 52.9093 27.278 52.9093 27.2384C52.9093 27.1066 52.8698 27.0143 52.8698 26.9088C52.8698 26.6319 53.0676 26.3814 53.4104 26.3814C53.8983 26.3814 54.0565 26.5396 54.4389 26.6451C55.1773 26.8561 55.8762 27.133 56.4168 27.6208C56.575 27.7659 56.6805 27.9373 56.8387 28.0823C57.0102 28.2669 57.2475 28.4252 57.3266 28.6757C57.3266 28.768 57.3266 29.1636 57.3266 29.2427C57.3266 29.8229 57.1948 30.3767 57.1948 30.9569C57.1948 31.0228 57.2079 31.2206 57.2079 31.247L57.2475 31.2733V31.4843L57.0102 32.0118C56.9574 32.0513 56.7069 32.6315 56.6014 32.7502C56.3377 33.1721 56.008 33.6073 55.6388 33.9765C55.4542 34.1347 55.2301 34.2534 55.0454 34.4116C54.4125 34.8863 53.7796 35.2687 52.9093 35.2687C52.5797 35.2687 52.4742 35.1105 52.316 34.8599C52.316 34.8599 52.2896 34.7808 52.2764 34.7412C52.2764 34.7412 52.2764 34.7281 52.2764 34.7149ZM53.5554 33.9765C53.5686 33.9896 53.6346 34.0028 53.6873 34.0028C53.74 34.0028 53.7796 33.9765 53.8323 33.9501C54.6499 33.3963 55.0059 33.0139 55.5333 32.315C55.652 32.1568 55.9157 31.9326 55.9157 31.7085C55.9157 31.6557 55.863 31.6557 55.863 31.5898C55.863 31.4843 55.9685 31.392 55.9817 31.2733C56.008 31.0096 56.1267 30.7327 56.1531 30.4558C56.1794 30.3108 56.2586 29.5855 56.2586 29.4405C56.2586 29.335 56.2454 29.1636 56.1926 29.0449C56.0344 28.6493 55.0586 27.6208 54.5444 27.6208C54.0961 27.9637 53.9774 30.113 53.9906 30.1525C53.9906 30.1921 53.951 30.2976 53.951 30.3108C53.9378 30.5745 53.8455 31.8008 53.8323 32.0513C53.8323 32.1172 53.8323 32.4469 53.8323 32.526C53.8192 32.6051 53.7269 32.6711 53.6873 32.7502C53.6741 32.9348 53.5686 33.66 53.5554 33.8182C53.5554 33.8182 53.5291 33.871 53.5291 33.8842C53.5291 33.8973 53.5554 33.9633 53.5554 33.9765Z" fill="white"/>
<path d="M58.7291 34.0028V33.9765C58.7423 33.9633 58.7818 33.9501 58.8082 33.9237C58.7423 33.1194 58.5972 32.315 58.4917 31.5107C58.4917 31.4711 58.4653 31.247 58.4653 31.2074C58.4653 31.1942 58.4653 31.0887 58.4653 31.0624C58.4522 31.0096 58.3335 30.5086 58.3203 30.4294C58.3071 30.3371 58.2676 29.8756 58.2676 29.7965C58.2676 29.7042 58.2676 28.9658 58.2676 28.8867C58.2544 28.6098 58.1225 28.3065 58.1225 28.0296C58.1225 27.489 58.7291 27.4758 59.1246 27.4758C59.4016 27.4758 59.9026 27.7527 59.9026 28.0692C59.9026 28.3329 59.6653 28.5702 59.6125 28.8603C59.5466 29.0845 59.573 29.5328 59.573 29.757C59.573 29.8229 59.573 30.1921 59.573 30.258C59.5862 30.2844 59.6125 30.3899 59.6125 30.4031C59.6389 30.7063 59.7048 30.9833 59.7312 31.2865C59.7971 31.9326 59.8367 32.5788 59.9026 33.2249C59.929 33.4886 60.0477 33.7655 60.0477 34.0292C60.0477 34.3325 59.5993 34.5435 59.3356 34.5435C59.0587 34.5435 58.9137 34.1611 58.7291 34.0028Z" fill="white"/>
<path d="M60.8395 30.4163C60.8395 30.0471 60.8791 29.691 60.9582 29.335C60.9714 29.3218 60.9978 29.2691 60.9978 29.2559C61.011 29.2032 61.0241 29.1636 61.0505 29.1108C61.3802 28.2669 61.9076 26.9352 62.9888 26.9352C63.3053 26.9352 63.4635 27.1461 63.7273 27.2253C63.7668 27.2253 64.0965 27.278 64.136 27.2912C64.1624 27.2912 64.3602 27.4099 64.4261 27.4494C64.4525 27.4494 64.558 27.5417 64.558 27.5417C64.5975 27.5681 64.8613 27.6736 64.9008 27.7C65.1382 27.8318 65.4282 28.4647 65.5601 28.6757C65.5865 28.7416 65.837 29.1768 65.8766 29.2163C65.8898 29.2427 65.9029 29.2823 65.9293 29.3086C65.9293 29.3614 65.9293 29.6251 65.9293 29.691C65.9293 30.2053 65.8634 31.2602 65.5865 31.748C65.5601 31.7744 65.3623 32.0645 65.3228 32.1172C64.7953 32.9084 64.1756 33.4886 63.1207 33.4886C62.2241 33.4886 61.8549 33.2908 61.3538 32.5788C60.9978 32.0513 60.8395 31.0624 60.8395 30.4163ZM62.1186 30.7327C62.1186 31.2338 62.4219 32.4205 63.068 32.4205C63.8196 32.4205 64.4657 31.2997 64.6503 30.7195C64.6766 30.6009 64.8085 30.0339 64.8217 29.9152C64.8217 29.902 64.8217 29.8888 64.8217 29.8756C64.8085 29.7701 64.8085 29.7042 64.7426 29.6251C64.7294 29.5855 64.5184 29.2691 64.492 29.2163C64.3338 28.9262 64.202 28.4911 63.8855 28.3065C63.8196 28.3197 63.4635 28.3197 63.3976 28.3065C63.3844 28.3065 63.2394 28.2801 63.213 28.2801C62.8174 28.3856 62.2241 29.6647 62.1713 30.0998C62.1581 30.113 62.1318 30.4954 62.1186 30.6536C62.1186 30.6536 62.1186 30.7195 62.1186 30.7327Z" fill="white"/>
<line x1="69.1758" y1="30.1427" x2="103.906" y2="30.1427" stroke="white" stroke-width="1.29862" stroke-linecap="round"/>
</svg>
